<svg width="2729" height="2641" viewBox="0 0 2729 2641" fill="none" xmlns="http://www.w3.org/2000/svg">
<ellipse cx="599.5" cy="194" rx="191.5" ry="194" fill="url(#paint0_radial_15_47)"/>
<g filter="url(#filter0_f_15_47)">
<ellipse cx="557" cy="115.5" rx="35" ry="35.5" fill="white"/>
</g>
<ellipse cx="2134.5" cy="194" rx="191.5" ry="194" fill="url(#paint1_radial_15_47)"/>
<g filter="url(#filter1_f_15_47)">
<ellipse cx="2092" cy="115.5" rx="35" ry="35.5" fill="white"/>
</g>
<path d="M523 361.5L520 545L544.5 531.5L563 520.5L587 509L616.5 499.5L648 490.5L679 482.5V475.5V440V410V385V367.5L663 355L648 344.5L631 339.5L613.5 337H593H577.5L559.5 339.5L544.5 344.5L531 351.5L523 361.5Z" fill="url(#paint2_linear_15_47)"/>
<path d="M2214 370V552L2189.5 538.5L2171 527.5L2147 516L2117.5 506.5L2086 497.5L2055 489.5V482.5V447V417V392V356L2065.5 349.5L2080 344L2099.5 340H2119H2141L2157 341.5L2174.5 346.5L2189.5 351.5L2203 358.5L2214 370Z" fill="url(#paint3_linear_15_47)"/>
<path d="M807 2231L1160 2238L1163.5 2531L1166 2550.5L1174 2564L1189.5 2581L1202.5 2587H1220H1241L1256.5 2583L1595.5 2274.5L1655 2235.5L1963.5 2225L2079.5 2195L2205 2139L2273 2093.5L2338 2041L2393 1982.5L2446.5 1907L2480.5 1845L2509 1775L2527 1697.5L2537 1621V966L2516.5 893L2494 830.5L2461 770.5L2418 714L2324.5 616L2221.5 541.5L2092.5 482L2028.5 463L1979 450.5L1912.5 441H797.5L732.5 453.5L643.5 479.5L574.5 506.5L514.5 537.5L459 570L403.5 613L354.5 660L311 710L272 766L238 828.5L212 891L192 969.5V1624L209.5 1732.5L253.5 1852L316 1955.5L392.5 2041L492 2117.5L594 2170L703 2210L807 2231Z" fill="url(#paint4_linear_15_47)"/>
<path d="M807.099 2226C807.033 2229.33 806.967 2232.67 806.901 2236C924.568 2238.33 1042.23 2240.67 1159.9 2243L1155 2238.06C1155.11 2247.01 1155.21 2255.96 1155.32 2264.91C1156.38 2353.63 1157.44 2442.34 1158.5 2531.06L1158.54 2531.64C1159.37 2538.14 1160.21 2544.64 1161.04 2551.14L1161.7 2553.05C1164.37 2557.55 1167.03 2562.05 1169.7 2566.55L1170.31 2567.37C1175.47 2573.04 1180.64 2578.7 1185.81 2584.37L1187.4 2585.54C1191.74 2587.54 1196.07 2589.54 1200.4 2591.54L1202.5 2592C1208.33 2592 1214.17 2592 1220 2592C1227 2592 1234 2592 1241 2592L1242.25 2591.84C1247.42 2590.51 1252.58 2589.17 1257.75 2587.84L1259.87 2586.7C1372.87 2483.86 1485.87 2381.03 1598.87 2278.2L1598.24 2278.68C1618.05 2265.7 1637.85 2252.72 1657.66 2239.74C1657.69 2239.72 1657.71 2239.7 1657.74 2239.68L1655.17 2240.5C1758 2237 1860.84 2233.5 1963.67 2230L1964.75 2229.84C2003.42 2219.84 2042.09 2209.84 2080.75 2199.84L2081.54 2199.57C2123.37 2180.9 2165.2 2162.23 2207.04 2143.57L2207.78 2143.16C2230.45 2127.99 2253.11 2112.82 2275.78 2097.66L2276.14 2097.39C2297.81 2079.89 2319.48 2062.39 2341.14 2044.89L2341.64 2044.42C2359.98 2024.92 2378.31 2005.42 2396.64 1985.92L2397.08 1985.39C2414.91 1960.22 2432.75 1935.06 2450.58 1909.89L2450.88 1909.4C2462.22 1888.74 2473.55 1868.07 2484.88 1847.4L2485.13 1846.89C2494.63 1823.55 2504.13 1800.22 2513.63 1776.89L2513.87 1776.13C2519.87 1750.3 2525.87 1724.46 2531.87 1698.63L2531.96 1698.15C2535.29 1672.65 2538.62 1647.15 2541.96 1621.65L2542 1621C2542 1402.67 2542 1184.33 2542 966L2541.81 964.648C2534.98 940.315 2528.15 915.982 2521.31 891.648L2521.2 891.306C2513.7 870.473 2506.2 849.64 2498.7 828.806L2498.38 828.09C2487.38 808.09 2476.38 788.09 2465.38 768.09L2464.98 767.472C2450.65 748.639 2436.31 729.805 2421.98 710.972L2421.62 710.548C2390.45 677.882 2359.28 645.215 2328.12 612.548L2327.43 611.949C2293.1 587.115 2258.76 562.282 2224.43 537.449L2223.59 536.96C2180.59 517.126 2137.59 497.293 2094.59 477.46L2093.92 477.207C2072.59 470.873 2051.26 464.54 2029.92 458.207L2029.72 458.152C2013.22 453.986 1996.72 449.819 1980.22 445.652L1979.71 445.55C1957.54 442.384 1935.37 439.217 1913.21 436.05L1912.5 436C1540.83 436 1169.17 436 797.5 436L796.556 436.09C774.889 440.257 753.222 444.423 731.556 448.59L731.098 448.701C701.431 457.367 671.765 466.034 642.098 474.701L641.678 474.844C618.678 483.844 595.678 492.844 572.678 501.844L572.205 502.058C552.205 512.391 532.205 522.725 512.205 533.058L511.973 533.185C493.473 544.019 474.973 554.852 456.473 565.685L455.938 566.047C437.438 580.381 418.938 594.714 400.438 609.048L400.039 609.392C383.706 625.058 367.372 640.725 351.039 656.392L350.728 656.718C336.228 673.385 321.728 690.051 307.228 706.718L306.897 707.143C293.897 725.809 280.897 744.476 267.897 763.143L267.608 763.611C256.275 784.444 244.941 805.277 233.608 826.111L233.384 826.58C224.717 847.413 216.05 868.246 207.384 889.08L207.155 889.766C200.488 915.932 193.821 942.099 187.155 968.266L187 969.5C187 1187.67 187 1405.83 187 1624L187.064 1624.8C192.897 1660.96 198.73 1697.13 204.564 1733.3L204.808 1734.23C219.475 1774.06 234.141 1813.89 248.808 1853.73L249.22 1854.58C270.053 1889.08 290.887 1923.58 311.72 1958.08L312.274 1958.83C337.774 1987.33 363.274 2015.83 388.774 2044.33L389.452 2044.96C411.257 2061.73 433.062 2078.49 454.867 2095.26C466.229 2103.99 477.591 2112.73 488.952 2121.46L489.712 2121.95C523.712 2139.45 557.712 2156.95 591.712 2174.45L592.277 2174.69C628.611 2188.03 664.944 2201.36 701.277 2214.69L702.01 2214.9C736.677 2221.9 771.344 2228.9 806.01 2235.9C806.67 2232.63 807.33 2229.37 807.99 2226.1C773.323 2219.1 738.656 2212.1 703.99 2205.1L704.723 2205.31C668.389 2191.97 632.056 2178.64 595.723 2165.31L596.288 2165.55C562.288 2148.05 528.288 2130.55 494.288 2113.05L495.048 2113.54C483.686 2104.8 472.324 2096.07 460.963 2087.33C439.158 2070.57 417.353 2053.8 395.548 2037.04L396.226 2037.67C370.726 2009.17 345.226 1980.67 319.726 1952.17L320.28 1952.92C299.447 1918.42 278.613 1883.92 257.78 1849.42L258.192 1850.27C243.525 1810.44 228.859 1770.61 214.192 1730.77L214.436 1731.7C208.603 1695.54 202.77 1659.37 196.936 1623.2L197 1624C197 1405.83 197 1187.67 197 969.5L196.845 970.734C203.512 944.568 210.179 918.401 216.845 892.234L216.616 892.92C225.283 872.087 233.95 851.254 242.616 830.42L242.392 830.889C253.725 810.056 265.059 789.223 276.392 768.389L276.103 768.857C289.103 750.191 302.103 731.524 315.103 712.857L314.772 713.282C329.272 696.615 343.772 679.949 358.272 663.282L357.961 663.608C374.294 647.942 390.628 632.275 406.961 616.608L406.562 616.952C425.062 602.619 443.562 588.286 462.062 573.952L461.527 574.315C480.027 563.481 498.527 552.648 517.027 541.815L516.795 541.942C536.795 531.609 556.795 521.275 576.795 510.942L576.322 511.156C599.322 502.156 622.322 493.156 645.322 484.156L644.902 484.299C674.569 475.633 704.235 466.966 733.902 458.299L733.444 458.41C755.111 454.243 776.778 450.077 798.444 445.91L797.5 446C1169.17 446 1540.83 446 1912.5 446L1911.79 445.95C1933.96 449.116 1956.13 452.283 1978.29 455.45L1977.78 455.348C1994.28 459.514 2010.78 463.681 2027.28 467.848L2027.08 467.793C2048.41 474.127 2069.74 480.46 2091.08 486.793L2090.41 486.54C2133.41 506.374 2176.41 526.207 2219.41 546.04L2218.57 545.551C2252.9 570.385 2287.24 595.218 2321.57 620.051L2320.88 619.452C2352.05 652.118 2383.22 684.785 2414.38 717.452L2414.02 717.028C2428.35 735.861 2442.69 754.695 2457.02 773.528L2456.62 772.91C2467.62 792.91 2478.62 812.91 2489.62 832.91L2489.3 832.194C2496.8 853.027 2504.3 873.86 2511.8 894.694L2511.69 894.352C2518.52 918.685 2525.35 943.018 2532.19 967.352L2532 966C2532 1184.33 2532 1402.67 2532 1621L2532.04 1620.35C2528.71 1645.85 2525.38 1671.35 2522.04 1696.85L2522.13 1696.37C2516.13 1722.2 2510.13 1748.04 2504.13 1773.87L2504.37 1773.11C2494.87 1796.45 2485.37 1819.78 2475.87 1843.11L2476.12 1842.6C2464.78 1863.26 2453.45 1883.93 2442.12 1904.6L2442.42 1904.11C2424.59 1929.28 2406.75 1954.44 2388.92 1979.61L2389.36 1979.08C2371.02 1998.58 2352.69 2018.08 2334.36 2037.58L2334.86 2037.11C2313.19 2054.61 2291.52 2072.11 2269.86 2089.61L2270.22 2089.34C2247.55 2104.51 2224.89 2119.68 2202.22 2134.84L2202.96 2134.43C2161.13 2153.1 2119.3 2171.77 2077.46 2190.43L2078.25 2190.16C2039.58 2200.16 2000.91 2210.16 1962.25 2220.16L1963.33 2220C1860.5 2223.5 1757.66 2227 1654.83 2230.5L1653.43 2230.55L1652.26 2231.32C1652.23 2231.34 1652.2 2231.35 1652.18 2231.37C1632.37 2244.35 1612.57 2257.34 1592.76 2270.32L1592.13 2270.8C1479.13 2373.64 1366.13 2476.47 1253.13 2579.3L1255.25 2578.16C1250.08 2579.49 1244.92 2580.83 1239.75 2582.16L1241 2582C1234 2582 1227 2582 1220 2582C1214.17 2582 1208.33 2582 1202.5 2582L1204.6 2582.46C1200.26 2580.46 1195.93 2578.46 1191.6 2576.46L1193.19 2577.63C1188.03 2571.96 1182.86 2566.3 1177.69 2560.63L1178.3 2561.45C1175.63 2556.95 1172.97 2552.45 1170.3 2547.95L1170.96 2549.86C1170.13 2543.36 1169.29 2536.86 1168.46 2530.36L1168.5 2530.94C1167.44 2442.22 1166.38 2353.51 1165.32 2264.79C1165.21 2255.84 1165.11 2246.89 1165 2237.94L1164.94 2233.1L1160.1 2233C1042.43 2230.67 924.766 2228.33 807.099 2226ZM806.901 2236L807.099 2226L807.99 2226.1L806.01 2235.9L806.901 2236Z" fill="#164194"/>
<g filter="url(#filter2_f_15_47)">
<ellipse cx="65.4343" cy="289.848" rx="65.4343" ry="289.848" transform="matrix(-0.422618 -0.906308 -0.906308 0.422618 907.691 611.607)" fill="white"/>
</g>
<path d="M359 1070.77V1612.38L367.893 1691.44L385.157 1740.92L403.99 1784.48L451.596 1858.71L509.665 1922.71L576.104 1975.42L645.681 2014.68L721.014 2045.87L808.378 2069H1888.14L1991.2 2048.56L2056.59 2026.51L2123.55 1993.7L2169.07 1963.05L2208.3 1928.09L2262.71 1870.54L2308.22 1804.92L2350.07 1711.34L2371 1612.38V1070.77L2361.06 1006.23L2343.27 948.686L2318.16 894.364L2275.27 823.908L2241.26 785.183L2209.35 753.989L2148.67 703.97L2074.9 661.481L1985.97 628.135L1938.36 617.378L1888.14 612H808.378L751.879 623.295L711.074 636.74L669.746 651.262L639.404 667.397L601.737 687.835L562.502 716.34L500.248 767.973L442.179 839.505L399.805 909.962L374.171 979.88L359 1070.77Z" fill="url(#paint5_linear_15_47)"/>
<path d="M403 1089.5V1593L411.5 1666.5L428 1712.5L446 1753L491.5 1822L547 1881.5L610.5 1930.5L677 1967L749 1996L832.5 2017.5H1864.5L1963 1998.5L2025.5 1978L2089.5 1947.5L2133 1919L2170.5 1886.5L2222.5 1833L2266 1772L2306 1685L2326 1593V1089.5L2316.5 1029.5L2299.5 976L2275.5 925.5L2234.5 860L2202 824L2171.5 795L2113.5 748.5L2043 709L1958 678L1912.5 668L1864.5 663H832.5L778.5 673.5L739.5 686L700 699.5L671 714.5L635 733.5L597.5 760L538 808L482.5 874.5L442 940L417.5 1005L403 1089.5Z" fill="white"/>
<path d="M403 1089.5V1593L411.5 1666.5L428 1712.5L446 1753L491.5 1822L547 1881.5L610.5 1930.5L677 1967L749 1996L832.5 2017.5H1864.5L1963 1998.5L2025.5 1978L2089.5 1947.5L2133 1919L2170.5 1886.5L2222.5 1833L2266 1772L2306 1685L2326 1593V1089.5L2316.5 1029.5L2299.5 976L2275.5 925.5L2234.5 860L2202 824L2171.5 795L2113.5 748.5L2043 709L1958 678L1912.5 668L1864.5 663H832.5L778.5 673.5L739.5 686L700 699.5L671 714.5L635 733.5L597.5 760L538 808L482.5 874.5L442 940L417.5 1005L403 1089.5Z" fill="url(#paint6_linear_15_47)" fill-opacity="0.2"/>
<path d="M403 1089.5V1593L411.5 1666.5L428 1712.5L446 1753L491.5 1822L547 1881.5L610.5 1930.5L677 1967L749 1996L832.5 2017.5H1864.5L1963 1998.5L2025.5 1978L2089.5 1947.5L2133 1919L2170.5 1886.5L2222.5 1833L2266 1772L2306 1685L2326 1593V1089.5L2316.5 1029.5L2299.5 976L2275.5 925.5L2234.5 860L2202 824L2171.5 795L2113.5 748.5L2043 709L1958 678L1912.5 668L1864.5 663H832.5L778.5 673.5L739.5 686L700 699.5L671 714.5L635 733.5L597.5 760L538 808L482.5 874.5L442 940L417.5 1005L403 1089.5Z" stroke="#164194" stroke-width="16" stroke-miterlimit="1.41421" stroke-linejoin="round"/>
<g filter="url(#filter3_d_15_47)">
<rect x="709" y="968" width="348" height="486" rx="174" fill="url(#paint7_linear_15_47)"/>
<rect x="709" y="968" width="348" height="486" rx="174" fill="url(#paint8_radial_15_47)" fill-opacity="0.2"/>
<rect x="709.5" y="968.5" width="347" height="485" rx="173.5" stroke="black"/>
</g>
<g filter="url(#filter4_f_15_47)">
<circle cx="824" cy="1084" r="28" fill="white"/>
</g>
<g filter="url(#filter5_d_15_47)">
<rect x="1673" y="968" width="348" height="486" rx="174" fill="url(#paint9_linear_15_47)"/>
<rect x="1673" y="968" width="348" height="486" rx="174" fill="url(#paint10_radial_15_47)" fill-opacity="0.2"/>
<rect x="1673.5" y="968.5" width="347" height="485" rx="173.5" stroke="black"/>
</g>
<g filter="url(#filter6_f_15_47)">
<circle cx="1788" cy="1084" r="28" fill="white"/>
</g>
<g filter="url(#filter7_i_15_47)">
<path d="M1067.26 1594.5C1063.9 1557.2 1100.63 1529.18 1135.72 1542.28L1138.62 1543.37C1144.17 1545.44 1149.33 1548.43 1153.88 1552.22L1168.81 1564.62C1175.92 1570.53 1183.52 1575.84 1191.51 1580.5L1206.75 1589.37C1218.88 1596.44 1231.73 1602.21 1245.07 1606.58L1267.23 1613.85C1280.71 1618.27 1294.61 1621.25 1308.71 1622.72L1349.5 1627L1398.5 1625.5L1422.08 1624.56C1439.62 1623.86 1456.99 1620.85 1473.74 1615.61L1489.58 1610.66C1499.51 1607.56 1509.19 1603.68 1518.52 1599.07L1529.45 1593.67C1541.12 1587.9 1552.2 1581.01 1562.54 1573.09L1592 1550.5C1614.29 1531.84 1648.07 1538.13 1662.14 1563.58L1666.02 1570.59C1669.63 1577.12 1671.82 1584.34 1672.44 1591.78L1672.61 1593.87C1672.87 1596.95 1672.89 1600.05 1672.68 1603.13L1672.34 1607.92C1671.79 1615.82 1669.09 1623.43 1664.53 1629.91C1662.85 1632.3 1660.93 1634.51 1658.8 1636.52L1644.5 1650L1617.94 1673.87C1606.02 1684.59 1592.86 1693.83 1578.74 1701.4L1551.5 1716L1522.12 1728.46C1511.06 1733.14 1499.61 1736.82 1487.89 1739.46L1453.81 1747.11C1442.29 1749.7 1430.57 1751.26 1418.77 1751.78L1357 1754.5L1303.17 1750.6C1293.07 1749.87 1283.04 1748.37 1273.17 1746.12L1244.6 1739.61C1228.27 1735.88 1212.46 1730.12 1197.56 1722.46L1154.26 1700.18C1140.49 1693.1 1127.82 1684.06 1116.65 1673.34L1090 1647.8C1075.47 1633.87 1067.26 1614.62 1067.26 1594.5Z" fill="url(#paint11_linear_15_47)"/>
</g>
<path d="M1069.26 1594.41L1069.25 1594.32C1066.02 1558.49 1101.31 1531.57 1135.02 1544.16L1137.92 1545.24C1143.26 1547.24 1148.22 1550.11 1152.61 1553.76L1167.53 1566.15C1174.73 1572.14 1182.42 1577.51 1190.51 1582.23L1205.74 1591.1C1218 1598.24 1230.97 1604.06 1244.45 1608.48L1266.61 1615.75C1280.22 1620.22 1294.26 1623.22 1308.5 1624.71L1349.29 1628.99L1349.43 1629L1349.56 1629L1398.56 1627.5H1398.57L1398.58 1627.5L1422.16 1626.56C1439.87 1625.85 1457.42 1622.81 1474.34 1617.52L1490.17 1612.57C1500.21 1609.44 1509.98 1605.52 1519.4 1600.87L1530.33 1595.47C1542.12 1589.64 1553.32 1582.68 1563.75 1574.68L1593.22 1552.09L1593.25 1552.06L1593.28 1552.03C1614.61 1534.18 1646.93 1540.2 1660.39 1564.54L1664.27 1571.56C1667.75 1577.84 1669.85 1584.79 1670.45 1591.95L1670.62 1594.04C1670.87 1597.02 1670.89 1600.01 1670.68 1602.99L1670.35 1607.78C1669.82 1615.32 1667.24 1622.57 1662.89 1628.75C1661.29 1631.03 1659.46 1633.15 1657.43 1635.06L1643.14 1648.53L1616.61 1672.38C1604.81 1682.99 1591.77 1692.14 1577.79 1699.64L1550.64 1714.19L1521.33 1726.62C1510.39 1731.25 1499.05 1734.9 1487.45 1737.5L1453.37 1745.16C1441.97 1747.72 1430.36 1749.27 1418.69 1749.78L1357.03 1752.5L1303.31 1748.6C1293.32 1747.88 1283.39 1746.4 1273.62 1744.17L1245.05 1737.66C1228.87 1733.97 1213.23 1728.27 1198.47 1720.68L1155.17 1698.4C1141.58 1691.41 1129.07 1682.48 1118.03 1671.9L1091.38 1646.35C1077.25 1632.81 1069.26 1614.08 1069.26 1594.5V1594.41Z" stroke="black" stroke-width="4"/>
<g filter="url(#filter8_f_15_47)">
<path d="M1216 2200L1183 2248V2552L1198 2561H1216L1244.5 2538.5L1279 2497L1330.5 2440.5L1388 2375.5L1440.5 2314L1475.5 2278L1512 2243L1544 2211.5L1547.5 2185C1541.83 2179.17 1530 2163 1518 2163H1426H1345H1274.5L1216 2200Z" fill="#0095DB"/>
</g>
<path d="M23 1083L36 1057.5L49.5 1036.5L66.5 1016.5L87 999.5L134.5 975.5L159.5 970L189 968V1626H158.5L143.5 1624L128 1619L105 1608L84 1593L62 1573L44.5 1550.5L29 1524L18.5 1495L11 1470.5L4.5 1441.5L0 1396V1292.5V1171.5L7 1130.5L15.5 1102.5L23 1083Z" fill="url(#paint12_linear_15_47)"/>
<path d="M2706 1083L2693 1057.5L2679.5 1036.5L2662.5 1016.5L2642 999.5L2594.5 975.5L2569.5 970L2540 968V1626H2570.5L2585.5 1624L2601 1619L2624 1608L2645 1593L2667 1573L2684.5 1550.5L2700 1524L2710.5 1495L2718 1470.5L2724.5 1441.5L2729 1396V1292.5V1171.5L2722 1130.5L2713.5 1102.5L2706 1083Z" fill="url(#paint13_linear_15_47)"/>
<g filter="url(#filter9_f_15_47)">
<ellipse cx="24.5" cy="113" rx="24.5" ry="113" transform="matrix(1 0 0 -1 84 1272)" fill="white"/>
</g>
<defs>
<filter id="filter0_f_15_47" x="442" y="0" width="230" height="231" filterUnits="userSpaceOnUse" color-interpolation-filters="sRGB">
<feFlood flood-opacity="0" result="BackgroundImageFix"/>
<feBlend mode="normal" in="SourceGraphic" in2="BackgroundImageFix" result="shape"/>
<feGaussianBlur stdDeviation="40" result="effect1_foregroundBlur_15_47"/>
</filter>
<filter id="filter1_f_15_47" x="1977" y="0" width="230" height="231" filterUnits="userSpaceOnUse" color-interpolation-filters="sRGB">
<feFlood flood-opacity="0" result="BackgroundImageFix"/>
<feBlend mode="normal" in="SourceGraphic" in2="BackgroundImageFix" result="shape"/>
<feGaussianBlur stdDeviation="40" result="effect1_foregroundBlur_15_47"/>
</filter>
<filter id="filter2_f_15_47" x="153.181" y="338.672" width="928.329" height="672.253" filterUnits="userSpaceOnUse" color-interpolation-filters="sRGB">
<feFlood flood-opacity="0" result="BackgroundImageFix"/>
<feBlend mode="normal" in="SourceGraphic" in2="BackgroundImageFix" result="shape"/>
<feGaussianBlur stdDeviation="100" result="effect1_foregroundBlur_15_47"/>
</filter>
<filter id="filter3_d_15_47" x="705" y="968" width="356" height="494" filterUnits="userSpaceOnUse" color-interpolation-filters="sRGB">
<feFlood flood-opacity="0" result="BackgroundImageFix"/>
<feColorMatrix in="SourceAlpha" type="matrix" values="0 0 0 0 0 0 0 0 0 0 0 0 0 0 0 0 0 0 127 0" result="hardAlpha"/>
<feOffset dy="4"/>
<feGaussianBlur stdDeviation="2"/>
<feComposite in2="hardAlpha" operator="out"/>
<feColorMatrix type="matrix" values="0 0 0 0 0 0 0 0 0 0 0 0 0 0 0 0 0 0 0.25 0"/>
<feBlend mode="normal" in2="BackgroundImageFix" result="effect1_dropShadow_15_47"/>
<feBlend mode="normal" in="SourceGraphic" in2="effect1_dropShadow_15_47" result="shape"/>
</filter>
<filter id="filter4_f_15_47" x="786" y="1046" width="76" height="76" filterUnits="userSpaceOnUse" color-interpolation-filters="sRGB">
<feFlood flood-opacity="0" result="BackgroundImageFix"/>
<feBlend mode="normal" in="SourceGraphic" in2="BackgroundImageFix" result="shape"/>
<feGaussianBlur stdDeviation="5" result="effect1_foregroundBlur_15_47"/>
</filter>
<filter id="filter5_d_15_47" x="1669" y="968" width="356" height="494" filterUnits="userSpaceOnUse" color-interpolation-filters="sRGB">
<feFlood flood-opacity="0" result="BackgroundImageFix"/>
<feColorMatrix in="SourceAlpha" type="matrix" values="0 0 0 0 0 0 0 0 0 0 0 0 0 0 0 0 0 0 127 0" result="hardAlpha"/>
<feOffset dy="4"/>
<feGaussianBlur stdDeviation="2"/>
<feComposite in2="hardAlpha" operator="out"/>
<feColorMatrix type="matrix" values="0 0 0 0 0 0 0 0 0 0 0 0 0 0 0 0 0 0 0.25 0"/>
<feBlend mode="normal" in2="BackgroundImageFix" result="effect1_dropShadow_15_47"/>
<feBlend mode="normal" in="SourceGraphic" in2="effect1_dropShadow_15_47" result="shape"/>
</filter>
<filter id="filter6_f_15_47" x="1750" y="1046" width="76" height="76" filterUnits="userSpaceOnUse" color-interpolation-filters="sRGB">
<feFlood flood-opacity="0" result="BackgroundImageFix"/>
<feBlend mode="normal" in="SourceGraphic" in2="BackgroundImageFix" result="shape"/>
<feGaussianBlur stdDeviation="5" result="effect1_foregroundBlur_15_47"/>
</filter>
<filter id="filter7_i_15_47" x="1067.04" y="1539.01" width="605.78" height="219.49" filterUnits="userSpaceOnUse" color-interpolation-filters="sRGB">
<feFlood flood-opacity="0" result="BackgroundImageFix"/>
<feBlend mode="normal" in="SourceGraphic" in2="BackgroundImageFix" result="shape"/>
<feColorMatrix in="SourceAlpha" type="matrix" values="0 0 0 0 0 0 0 0 0 0 0 0 0 0 0 0 0 0 127 0" result="hardAlpha"/>
<feOffset dy="4"/>
<feGaussianBlur stdDeviation="10"/>
<feComposite in2="hardAlpha" operator="arithmetic" k2="-1" k3="1"/>
<feColorMatrix type="matrix" values="0 0 0 0 1 0 0 0 0 1 0 0 0 0 1 0 0 0 0.94 0"/>
<feBlend mode="normal" in2="shape" result="effect1_innerShadow_15_47"/>
</filter>
<filter id="filter8_f_15_47" x="1103" y="2083" width="524.5" height="558" filterUnits="userSpaceOnUse" color-interpolation-filters="sRGB">
<feFlood flood-opacity="0" result="BackgroundImageFix"/>
<feBlend mode="normal" in="SourceGraphic" in2="BackgroundImageFix" result="shape"/>
<feGaussianBlur stdDeviation="40" result="effect1_foregroundBlur_15_47"/>
</filter>
<filter id="filter9_f_15_47" x="4" y="966" width="209" height="386" filterUnits="userSpaceOnUse" color-interpolation-filters="sRGB">
<feFlood flood-opacity="0" result="BackgroundImageFix"/>
<feBlend mode="normal" in="SourceGraphic" in2="BackgroundImageFix" result="shape"/>
<feGaussianBlur stdDeviation="40" result="effect1_foregroundBlur_15_47"/>
</filter>
<radialGradient id="paint0_radial_15_47" cx="0" cy="0" r="1" gradientUnits="userSpaceOnUse" gradientTransform="translate(550.5 119.5) rotate(73.7203) scale(176.58 184.068)">
<stop stop-color="#0095DB"/>
<stop offset="1" stop-color="#164194"/>
</radialGradient>
<radialGradient id="paint1_radial_15_47" cx="0" cy="0" r="1" gradientUnits="userSpaceOnUse" gradientTransform="translate(2085.5 119.5) rotate(73.7203) scale(176.58 184.068)">
<stop stop-color="#0095DB"/>
<stop offset="1" stop-color="#164194"/>
</radialGradient>
<linearGradient id="paint2_linear_15_47" x1="691.5" y1="441" x2="503" y2="441" gradientUnits="userSpaceOnUse">
<stop offset="0.201923" stop-color="#164194"/>
<stop offset="0.612914" stop-color="#0095DB"/>
<stop offset="1" stop-color="#164194"/>
</linearGradient>
<linearGradient id="paint3_linear_15_47" x1="2042.5" y1="448" x2="2231" y2="448" gradientUnits="userSpaceOnUse">
<stop offset="0.0336538" stop-color="#164194"/>
<stop offset="0.326923" stop-color="#0095DB"/>
<stop offset="0.836538" stop-color="#164194"/>
</linearGradient>
<linearGradient id="paint4_linear_15_47" x1="399" y1="619.5" x2="2133.5" y2="2277" gradientUnits="userSpaceOnUse">
<stop offset="0.331731" stop-color="#0095DB"/>
<stop offset="1" stop-color="#164194"/>
</linearGradient>
<linearGradient id="paint5_linear_15_47" x1="2144.5" y1="1893" x2="484.5" y2="133" gradientUnits="userSpaceOnUse">
<stop stop-color="#0095DB"/>
<stop offset="1" stop-color="#164194"/>
</linearGradient>
<linearGradient id="paint6_linear_15_47" x1="597" y1="869" x2="2116" y2="1926" gradientUnits="userSpaceOnUse">
<stop stop-color="white"/>
<stop offset="1" stop-opacity="0.8"/>
</linearGradient>
<linearGradient id="paint7_linear_15_47" x1="752" y1="1058" x2="991.5" y2="1430.5" gradientUnits="userSpaceOnUse">
<stop stop-color="#164194"/>
<stop offset="0.456731" stop-color="#001846"/>
</linearGradient>
<radialGradient id="paint8_radial_15_47" cx="0" cy="0" r="1" gradientUnits="userSpaceOnUse" gradientTransform="translate(831.5 1095) rotate(80.0233) scale(100.511 92.3772)">
<stop offset="0.3" stop-color="white"/>
<stop offset="0.875"/>
</radialGradient>
<linearGradient id="paint9_linear_15_47" x1="1716" y1="1058" x2="1955.5" y2="1430.5" gradientUnits="userSpaceOnUse">
<stop stop-color="#164194"/>
<stop offset="0.456731" stop-color="#001846"/>
</linearGradient>
<radialGradient id="paint10_radial_15_47" cx="0" cy="0" r="1" gradientUnits="userSpaceOnUse" gradientTransform="translate(1795.5 1095) rotate(80.0233) scale(100.511 92.3772)">
<stop offset="0.3" stop-color="white"/>
<stop offset="0.875"/>
</radialGradient>
<linearGradient id="paint11_linear_15_47" x1="1367" y1="1467" x2="1378.5" y2="1754" gradientUnits="userSpaceOnUse">
<stop stop-color="#164194"/>
<stop offset="1" stop-color="#001846"/>
</linearGradient>
<linearGradient id="paint12_linear_15_47" x1="94.5" y1="968" x2="94.5" y2="1626" gradientUnits="userSpaceOnUse">
<stop stop-color="#0095DB"/>
<stop offset="1" stop-color="#164194"/>
</linearGradient>
<linearGradient id="paint13_linear_15_47" x1="2634.5" y1="968" x2="2634.5" y2="1626" gradientUnits="userSpaceOnUse">
<stop stop-color="#0095DB"/>
<stop offset="1" stop-color="#164194"/>
</linearGradient>
</defs>
</svg>
